<svg width="48" height="48" viewBox="0 0 48 48" fill="none" xmlns="http://www.w3.org/2000/svg">
<path d="M20.5114 20.625C21.2556 20.625 21.9581 20.45 22.5938 20.1219V22.5938H19.7813V25.4063H28.2188V22.5938H25.4063V20.1219C26.0419 20.4501 26.7445 20.625 27.4886 20.625C30.2334 20.625 32.3834 18.3439 32.3834 15.4318C32.3834 12.252 29.7556 10.157 26.7173 7.59263C24.9142 6.07069 24.891 6.03075 24 5.26416C23.1101 6.02972 23.0921 6.06535 21.2828 7.59272C17.9933 10.369 15.6167 12.375 15.6167 15.4318C15.6166 18.3439 17.7667 20.625 20.5114 20.625ZM23.0967 9.74194C23.3917 9.49294 23.6919 9.23972 24 8.97769C24.3082 9.23972 24.6082 9.49294 24.9032 9.74194C27.8049 12.1909 29.5709 13.691 29.5709 15.4318C29.5709 16.6148 28.8557 17.8125 27.4886 17.8125C26.2382 17.8125 25.6182 16.5279 25.4096 15.9757L25.0661 15.0662H22.9339L22.5904 15.9757C22.3818 16.5279 21.7618 17.8125 20.5114 17.8125C19.1443 17.8125 18.4291 16.6148 18.4291 15.4318C18.4291 13.7559 19.9444 12.4026 23.0967 9.74194Z" fill="#00AA81"/>
<path d="M48 2.90625H33.8438V10.4069C33.9694 10.6393 36.6562 13.5415 36.6562 18.375C36.6562 25.3537 30.9787 31.0312 24 31.0312C17.0213 31.0312 11.3438 25.3537 11.3438 18.375C11.3438 13.5254 14.0229 10.6522 14.1562 10.4055V2.90625H0V11.3438H2.11584C0.726469 14.4213 0 17.7817 0 21.1875C0 34.3694 10.7663 45.0938 24 45.0938C37.2337 45.0938 48 34.3694 48 21.1875C48 17.7817 47.2735 14.4213 45.8842 11.3438H48V2.90625ZM45.1875 8.53125H41.1457L42.3664 10.6417C44.212 13.8322 45.1875 17.4788 45.1875 21.1875C45.1875 32.8186 35.6828 42.2812 24 42.2812C12.3172 42.2812 2.8125 32.8186 2.8125 21.1875C2.8125 17.4788 3.78797 13.8322 5.63363 10.6417L6.85434 8.53125H2.8125V5.71875H11.3438V9.47878C9.50203 12.0913 8.53125 15.1566 8.53125 18.375C8.53125 26.9045 15.4705 33.8438 24 33.8438C32.5295 33.8438 39.4688 26.9045 39.4688 18.375C39.4688 15.1575 38.498 12.0926 36.6562 9.48019V5.71875H45.1875V8.53125Z" fill="#00AA81"/>
<path d="M22.5938 36.6562H25.4062V39.4688H22.5938V36.6562Z" fill="#00AA81"/>
<path d="M32.4375 33.8438H35.25V36.6562H32.4375V33.8438Z" fill="#00AA81"/>
<path d="M38.0625 28.2188H40.875V31.0312H38.0625V28.2188Z" fill="#00AA81"/>
<path d="M12.75 33.8438H15.5625V36.6562H12.75V33.8438Z" fill="#00AA81"/>
<path d="M7.125 28.2188H9.9375V31.0312H7.125V28.2188Z" fill="#00AA81"/>
</svg>
