<svg width="20" height="22" viewBox="0 0 20 22" fill="none" xmlns="http://www.w3.org/2000/svg">
<mask id="mask0_490_11438" style="mask-type:luminance" maskUnits="userSpaceOnUse" x="3" y="0" width="15" height="16">
<path d="M3 0.5H18V15.5H3V0.5Z" fill="white"/>
</mask>
<g mask="url(#mask0_490_11438)">
<path d="M10.487 14.75C14.209 14.75 17.225 11.727 17.225 8C17.225 4.273 14.209 1.25 10.487 1.25C6.766 1.25 3.75 4.273 3.75 8C3.75 11.727 6.766 14.75 10.487 14.75Z" fill="#4DA533" stroke="white" stroke-width="0.5"/>
<path d="M16.975 8C16.9748 7.85855 16.9701 7.71715 16.961 7.576L14.02 4.629L6.936 11.35L10.066 14.486C10.205 14.495 10.346 14.5 10.487 14.5C14.07 14.5 16.975 11.59 16.975 8Z" fill="#61BF45"/>
<path d="M10.487 12.888C11.1283 12.8875 11.7633 12.7606 12.3556 12.5147C12.9479 12.2687 13.4859 11.9085 13.939 11.4546C14.3921 11.0007 14.7513 10.462 14.9961 9.86925C15.241 9.2765 15.3667 8.64133 15.366 8C15.366 5.3 13.182 3.112 10.487 3.112C9.19212 3.11359 7.9509 3.62944 7.03631 4.54608C6.12172 5.46273 5.60868 6.70512 5.61 8C5.61 10.7 7.793 12.888 10.487 12.888Z" fill="white"/>
<path d="M10.487 3.112H10.477V12.888H10.487C11.1283 12.8875 11.7633 12.7606 12.3556 12.5147C12.9479 12.2687 13.4859 11.9085 13.939 11.4546C14.3921 11.0007 14.7513 10.462 14.9961 9.86925C15.241 9.2765 15.3667 8.64133 15.366 8C15.366 5.3 13.182 3.112 10.487 3.112Z" fill="#F0F0F0"/>
<path d="M10.487 5.987L8.604 7.357L9.324 9.577H11.652L12.371 7.357L10.487 5.987Z" fill="#555A66"/>
<path d="M12.371 7.358L10.487 5.987L10.477 5.994V9.577H11.652L12.371 7.358Z" fill="#414952"/>
<path d="M8.716 3.445L10.487 4.734L12.258 3.444C11.6939 3.22397 11.0935 3.11137 10.488 3.112C9.863 3.112 9.265 3.23 8.716 3.445Z" fill="#555A66"/>
<path d="M12.258 3.445C11.6939 3.22462 11.0936 3.11168 10.488 3.112H10.477V4.726L10.487 4.734L12.258 3.445ZM13.57 6.953L15.359 8.255C15.4249 7.02996 15.0264 5.82514 14.243 4.881L13.57 6.953ZM11.724 12.729C12.9139 12.4153 13.9416 11.6643 14.602 10.626H12.406L11.724 12.729Z" fill="#414952"/>
<path d="M6.732 4.88C5.94839 5.8244 5.54986 7.02963 5.616 8.255L7.404 6.953L6.732 4.88ZM8.568 10.626H6.372C7.03235 11.6643 8.06011 12.4153 9.25 12.729L8.568 10.626Z" fill="#555A66"/>
</g>
<path d="M18.989 15.2H18.992L18.989 15.187H18.999L18.996 15.173H19.006L19.003 15.159H19.013L19.01 15.145H19.02L19.017 15.132H19.027L19.023 15.118H19.033L19.03 15.104H19.044L19.041 15.09H19.054L19.051 15.077H19.065L19.061 15.063H19.075L19.072 15.049H19.085L19.082 15.035H19.096L19.092 15.022H19.106L19.102 15.008H19.116L19.113 14.994H19.127L19.123 14.98H19.137L19.133 14.967H19.147L19.144 14.953H19.158L19.154 14.939H19.168L19.164 14.925H19.178L19.175 14.912H19.188L19.185 14.898H19.199L19.195 14.884H19.209L19.206 14.87H19.219L19.216 14.857H19.23L19.226 14.843H19.24L19.237 14.829H19.25L19.247 14.815H19.261L19.257 14.802H19.271L19.267 14.788H19.281L19.278 14.774H19.292L19.288 14.76H19.302L19.299 14.746H19.312L19.309 14.733H19.323L19.319 14.719H19.333L19.329 14.705H19.343L19.34 14.691H19.354L19.35 14.678H19.364L19.36 14.664H19.374L19.371 14.65H19.385L19.381 14.636H19.395L19.391 14.623H19.405L19.402 14.609H19.415L19.412 14.595H19.426L19.422 14.581H19.436L19.433 14.568H19.446L19.443 14.554H19.457L19.453 14.54H19.467L19.464 14.526H19.477L19.474 14.513H19.488L19.484 14.499H19.498L19.494 14.485H19.508L19.505 14.471H19.519L19.515 14.458H19.529L19.525 14.444H19.539L19.536 14.43H19.549L18.827 11.806H2.012L1.967 12.002L1.809 11.909L1.434 13.57L1.248 14.361L1.014 15.351L1.024 15.359V15.366L1.032 15.369V15.376L1.042 15.383V15.39L1.052 15.396V15.403L1.062 15.41V15.417L1.072 15.424V15.431L1.083 15.438V15.445L1.093 15.451V15.458L1.103 15.465V15.472L1.114 15.479V15.486L1.124 15.493V15.5L1.134 15.507V15.513L1.145 15.52V15.527L1.155 15.534V15.541L1.165 15.548V15.555L1.173 15.558L0 19.416L0.825 20.561L2.696 19.894C2.936 19.808 3.181 19.729 3.425 19.654C3.628 19.592 3.835 19.53 4.037 19.471C4.281 19.403 4.529 19.337 4.773 19.275L5.031 19.21L5.292 19.152C5.74456 19.0515 6.19973 18.9632 6.657 18.887C6.905 18.846 7.157 18.811 7.407 18.78L7.699 18.742L7.992 18.712C8.242 18.687 8.494 18.667 8.742 18.649L9.694 18.584L10.65 18.601C11.1103 18.606 11.5703 18.6277 12.029 18.666C12.279 18.687 12.531 18.711 12.779 18.739L13.043 18.769L13.305 18.804C13.552 18.839 13.807 18.877 14.051 18.918L14.364 18.969L14.674 19.031C14.921 19.079 15.172 19.134 15.416 19.189L16.014 19.327L16.606 19.499C16.85 19.571 17.098 19.647 17.338 19.722L19.161 20.314L19.157 20.297L19.171 20.3L19.168 20.283L19.182 20.286L19.178 20.269L19.192 20.273L19.188 20.255L19.202 20.259L19.199 20.242L19.212 20.245L19.209 20.228L19.223 20.231L19.219 20.214L19.233 20.218L19.23 20.2L19.244 20.204L19.24 20.187L19.254 20.19L19.25 20.173L19.264 20.176L19.261 20.159L19.274 20.163L19.271 20.145L19.285 20.149L19.281 20.132L19.295 20.135L19.292 20.118L19.305 20.121L19.302 20.104L19.316 20.108L19.312 20.09L19.326 20.094L19.323 20.077L19.336 20.08L19.333 20.063L19.347 20.066L19.343 20.049L19.357 20.053L19.354 20.035L19.367 20.039L19.364 20.022L19.378 20.025L19.374 20.008L19.388 20.011L19.384 19.994L19.398 19.997L19.395 19.98L19.409 19.984L19.405 19.967L19.419 19.97L19.415 19.953L19.429 19.956L19.426 19.939L19.44 19.942L19.436 19.925L19.45 19.929L19.446 19.912L19.46 19.915L19.457 19.898L19.47 19.901L19.467 19.884L19.481 19.887L19.477 19.87L19.491 19.874L19.488 19.857L19.501 19.86L19.498 19.843L19.512 19.846L19.508 19.829L19.522 19.832L19.519 19.815L19.532 19.819L19.529 19.802L19.543 19.805L19.539 19.788L19.553 19.791L19.549 19.774L19.563 19.777L19.56 19.76L19.574 19.764L19.57 19.747L19.584 19.75L19.581 19.733L19.594 19.736L19.591 19.719L19.605 19.722L19.601 19.705L19.615 19.709L19.611 19.692L19.625 19.695L19.622 19.678L19.636 19.681L19.632 19.664L19.646 19.667L19.642 19.65L19.656 19.654L19.653 19.637L19.666 19.64L19.663 19.623L19.677 19.626L19.673 19.609L19.687 19.612L19.684 19.595L19.697 19.599L19.694 19.581L19.708 19.585L19.704 19.568L19.718 19.571L19.715 19.554L19.728 19.557L19.725 19.54L19.739 19.544L19.735 19.526L19.749 19.53L19.746 19.513L19.759 19.516L19.756 19.499L19.77 19.502L19.766 19.485L19.78 19.489L19.776 19.471L19.79 19.475L19.787 19.458L19.801 19.461L19.797 19.444L19.811 19.447L19.807 19.43L19.821 19.434L19.818 19.416L19.831 19.42L19.828 19.403L19.842 19.406L19.838 19.389L19.852 19.392L19.849 19.375L19.862 19.379L19.859 19.361L19.873 19.365L19.869 19.348L19.883 19.351L19.88 19.334L19.893 19.337L19.89 19.32L19.904 19.323L19.842 19.427L19.856 19.43L19.852 19.413L19.866 19.416L19.862 19.399L19.876 19.403L19.873 19.385L19.887 19.389L19.883 19.372L19.897 19.375L19.893 19.358L19.907 19.361L19.904 19.344L19.918 19.348L19.914 19.33L19.928 19.334L19.924 19.317L19.938 19.32L19.935 19.303L19.948 19.306L19.945 19.289L19.959 19.293L19.955 19.275L19.969 19.279L19.966 19.262L19.979 19.265L19.976 19.248L19.99 19.251L19.986 19.234L20 19.238L18.989 15.2Z" fill="#4DA533"/>
<path d="M18.858 14.379L19.55 14.416L18.748 11.139H2.008L1.823 11.903L1.661 11.81L1.283 13.364L1.093 14.144L0.856 15.121L1.025 15.211L0 19.416L2.036 18.773C2.297 18.691 2.566 18.608 2.83 18.536C3.05 18.474 3.274 18.412 3.497 18.357C3.762 18.288 4.034 18.223 4.302 18.165L4.581 18.103L4.866 18.044C5.134 17.989 5.406 17.938 5.678 17.893C5.901 17.855 6.128 17.817 6.355 17.786C6.62622 17.7473 6.89791 17.712 7.17 17.68L7.49 17.642L7.81 17.614C8.081 17.59 8.356 17.57 8.628 17.552L9.667 17.491L10.709 17.508C10.98 17.511 11.259 17.522 11.531 17.532C11.757 17.542 11.988 17.556 12.215 17.573C12.486 17.593 12.762 17.614 13.033 17.642L13.323 17.669L13.607 17.704C13.879 17.738 14.154 17.776 14.423 17.817L14.763 17.869L15.1 17.931C15.368 17.979 15.643 18.031 15.908 18.089L16.561 18.227L17.208 18.395C17.473 18.464 17.744 18.539 18.006 18.619L19.993 19.203L18.858 14.379Z" fill="white"/>
<path d="M9.374 12.958C9.192 12.958 9.006 12.962 8.824 12.962L8.772 13.718C8.958 13.798 9.144 13.877 9.332 13.959L9.374 12.958ZM11.448 12.962L11.588 15.709C11.795 15.716 12.008 15.729 12.215 15.74L11.995 12.965L11.448 12.962ZM14.072 13.007L14.199 13.811C14.409 13.914 14.615 14.021 14.814 14.124L14.618 13.02C14.436 13.017 14.254 13.01 14.072 13.007Z" fill="#61BF45"/>
<path d="M18.418 14.01L19.106 14.048L18.48 11.483H2.276L2.046 12.429L1.884 12.336L1.427 14.224L1.252 14.946L1.417 15.036L0.477997 18.907L1.933 18.447C2.42209 18.2938 2.91491 18.1528 3.411 18.024C3.679 17.954 3.955 17.89 4.226 17.828L4.508 17.766L4.798 17.707C5.2988 17.6066 5.80194 17.5182 6.307 17.442C6.582 17.402 6.857 17.367 7.132 17.336L7.455 17.298L7.779 17.268C8.054 17.243 8.332 17.222 8.607 17.205L9.36 17.161L9.464 15.631C9.577 15.675 9.69 15.723 9.807 15.771L9.859 15.791L9.883 17.147L10.715 17.161C11.2232 17.166 11.7312 17.1877 12.238 17.226C12.514 17.246 12.792 17.27 13.068 17.298L13.36 17.329L13.649 17.363C13.924 17.398 14.202 17.436 14.474 17.477L14.818 17.529L15.158 17.59C15.43 17.639 15.708 17.694 15.977 17.749L16.785 17.917L16.788 17.924L17.294 18.058C17.562 18.13 17.837 18.206 18.102 18.282L19.522 18.698L18.418 14.01ZM3.532 13.113L3.305 14.083C3.515 14.193 3.735 14.299 3.961 14.406L3.986 14.416L3.803 15.248L3.765 15.235C3.535 15.142 3.312 15.045 3.102 14.953L2.72 16.593C2.92 16.545 3.126 16.497 3.325 16.453L3.542 15.476L3.58 15.489C3.807 15.575 4.04 15.658 4.298 15.744L4.326 15.754L4.065 17.016L4.044 17.02C3.52862 17.1343 3.01703 17.2651 2.51 17.412C2.235 17.491 1.957 17.573 1.682 17.659L1.623 17.676L2.353 14.674L2.466 14.657C2.442 14.643 2.417 14.633 2.39 14.619C2.335 14.589 2.276 14.561 2.221 14.529L2.201 14.519L2.428 13.598L2.469 13.622C2.51 13.646 2.552 13.67 2.593 13.691L2.926 12.308H5.038L4.728 13.815L4.701 13.818L3.944 13.88L3.896 13.883L4.072 13.089L3.532 13.113ZM7.417 13.67H7.39C7.135 13.68 6.881 13.69 6.627 13.704L6.585 13.708L6.692 13.003C6.51 13.006 6.327 13.013 6.145 13.017L6.005 13.842C6.385 14.014 6.812 14.196 7.304 14.396L7.328 14.406L7.067 16.514L7.039 16.517C6.757 16.548 6.469 16.587 6.189 16.627C5.66811 16.6987 5.14981 16.7881 4.635 16.895L4.584 16.906L4.942 15.059L4.966 15.056C5.23 15.022 5.499 14.991 5.763 14.96L5.808 14.956L5.626 16.026C5.832 15.995 6.038 15.967 6.245 15.94L6.403 14.884L6.527 14.874C6.496 14.864 6.468 14.85 6.437 14.839C5.99126 14.6679 5.54979 14.4858 5.113 14.293L5.089 14.283L5.475 12.308H7.586L7.417 13.67ZM10.172 15.025L10.124 15.005L9.295 14.667C9.102 14.588 8.91 14.513 8.725 14.434L8.59 16.377L8.56 16.38C8.277 16.397 7.988 16.418 7.706 16.445L7.665 16.449L7.899 14.127L7.978 14.124L7.926 14.104L7.737 14.021L7.713 14.011L7.793 13.288C7.793 13.288 7.93 13.347 7.975 13.368L8.081 12.305H10.189L10.172 15.025ZM13.153 16.476C12.869 16.4486 12.5846 16.4246 12.3 16.404C12.0632 16.387 11.8262 16.3733 11.589 16.363C11.303 16.349 11.018 16.343 10.732 16.335H10.698L10.626 12.308H12.734L13.194 16.48L13.154 16.476H13.153ZM16.152 16.94C15.8707 16.8814 15.5887 16.8264 15.306 16.775L15.282 16.772L14.962 14.967L15.072 14.98C15.038 14.963 15.003 14.943 14.969 14.925C14.759 14.812 14.539 14.698 14.319 14.585L14.646 16.665L14.598 16.658C14.3154 16.6139 14.032 16.5749 13.748 16.541L13.721 16.538L13.171 12.308H15.282L15.671 14.265L15.647 14.275C15.557 14.313 15.467 14.355 15.375 14.392C15.492 14.458 15.609 14.52 15.725 14.585L15.739 14.592L16.207 16.951L16.152 16.94ZM18.339 17.49C18.0631 17.4081 17.7857 17.3314 17.507 17.26L17.487 17.253L16.551 13.093L15.904 13.065H15.877L15.719 12.308H17.834L18.044 13.165L17.999 13.161L17.366 13.131L18.401 17.508L18.339 17.49Z" fill="#61BF45"/>
</svg>
