<svg width="20" height="20" viewBox="0 0 20 20" fill="none" xmlns="http://www.w3.org/2000/svg">
<g clip-path="url(#clip0_4831_85)">
<path d="M17.0933 10.6777L13.2176 10L17.0933 9.32234C18.7776 9.02785 20 7.57148 20 5.85938C20 4.29578 18.9718 2.93727 17.5057 2.4943C17.0627 1.02824 15.7042 0 14.1406 0C12.4285 0 10.9721 1.22242 10.6777 2.90664L10 6.78238L9.32234 2.90664C9.02785 1.22242 7.57148 0 5.85938 0C4.29578 0 2.93727 1.02824 2.4943 2.4943C1.02824 2.93727 0 4.29578 0 5.85938C0 7.57148 1.22242 9.02785 2.90668 9.32234L6.78238 10L2.90668 10.6777C1.22242 10.9721 0 12.4285 0 14.1406C0 15.7042 1.02824 17.0627 2.4943 17.5057C2.93727 18.9718 4.29578 20 5.85938 20C7.57148 20 9.02785 18.7776 9.32234 17.0934L10 13.2176L10.6777 17.0934C10.9721 18.7776 12.4285 20 14.1406 20C15.7042 20 17.0627 18.9718 17.5057 17.5057C18.9718 17.0627 20 15.7042 20 14.1406C20 12.4285 18.7776 10.9721 17.0933 10.6777ZM9.41406 10C9.41406 9.67691 9.67691 9.41406 10 9.41406C10.3231 9.41406 10.5859 9.67691 10.5859 10C10.5859 10.3231 10.3231 10.5859 10 10.5859C9.67691 10.5859 9.41406 10.3231 9.41406 10ZM11.832 3.10848C12.0282 1.98633 12.9991 1.17188 14.1406 1.17188C15.2706 1.17188 16.2397 1.97668 16.4451 3.08547L16.5185 3.48156L16.9146 3.55492C18.0233 3.76027 18.8281 4.72941 18.8281 5.85938C18.8281 7.00086 18.0136 7.9718 16.8915 8.16797L11.7641 9.06449L13.969 6.85965L13.1404 6.03102L10.9355 8.23586L11.832 3.10848ZM1.17188 5.85938C1.17188 4.72941 1.97668 3.76027 3.08547 3.55488L3.48156 3.48152L3.55492 3.08543C3.76027 1.97668 4.72941 1.17188 5.85938 1.17188C7.00086 1.17188 7.9718 1.98633 8.16797 3.10848L9.06449 8.23586L6.85965 6.03102L6.03102 6.85965L8.23586 9.06449L3.10852 8.16797C1.98637 7.9718 1.17188 7.00086 1.17188 5.85938ZM8.16797 16.8915C7.9718 18.0137 7.00086 18.8281 5.85938 18.8281C4.72941 18.8281 3.76027 18.0233 3.55488 16.9145L3.48152 16.5184L3.08543 16.4451C1.97668 16.2397 1.17188 15.2706 1.17188 14.1406C1.17188 12.9991 1.98637 12.0282 3.10852 11.832L8.23586 10.9355L6.03102 13.1404L6.85965 13.969L9.06449 11.7641L8.16797 16.8915ZM16.9145 16.4451L16.5184 16.5185L16.4451 16.9146C16.2397 18.0233 15.2706 18.8281 14.1406 18.8281C12.9991 18.8281 12.0282 18.0137 11.832 16.8915L10.9355 11.7642L13.1404 13.969L13.969 13.1404L11.7641 10.9355L16.8915 11.8321C18.0136 12.0282 18.8281 12.9991 18.8281 14.1406C18.8281 15.2706 18.0233 16.2397 16.9145 16.4451Z" fill="#00AA81"/>
</g>
<defs>
<clipPath id="clip0_4831_85">
<rect width="20" height="20" fill="white"/>
</clipPath>
</defs>
</svg>
