<svg width="40" height="40" viewBox="0 0 40 40" fill="none" xmlns="http://www.w3.org/2000/svg">
<g clip-path="url(#clip0_4831_176)">
<path d="M40 17.5781C40 7.8632 32.1381 0 22.4219 0C16.5407 0 11.0922 2.91281 7.81594 7.7975C3.11023 10.9528 0 16.2903 0 22.4219C0 32.1368 7.86195 40 17.5781 40C23.7103 40 29.0486 36.8877 32.2025 32.1841C37.0872 28.9079 40 23.4593 40 17.5781ZM4.74133 21.25H2.38836C2.64219 17.929 3.96609 14.9028 6.0143 12.5154L7.67648 14.1776C6.04656 16.1319 4.98367 18.5742 4.74133 21.25ZM17.5781 11.875C23.3937 11.875 28.125 16.6063 28.125 22.4219C28.125 28.2374 23.3937 32.9688 17.5781 32.9688C11.7626 32.9688 7.03125 28.2374 7.03125 22.4219C7.03125 16.6063 11.7626 11.875 17.5781 11.875ZM9.33383 32.3234C11.2881 33.9534 13.7305 35.0163 16.4062 35.2587V37.6116C13.0852 37.3578 10.0591 36.0339 7.67164 33.9857L9.33383 32.3234ZM18.75 35.2587C21.4258 35.0163 23.8681 33.9534 25.8224 32.3234L27.4846 33.9856C25.0972 36.0339 22.071 37.3578 18.75 37.6116V35.2587ZM27.4797 30.6662C29.1097 28.7119 30.1726 26.2695 30.4149 23.5938H32.7679C32.5141 26.9148 31.1902 29.9409 29.142 32.3284L27.4797 30.6662ZM30.4149 21.25C30.1726 18.5742 29.1097 16.1319 27.4797 14.1776L29.1419 12.5154C31.1901 14.9028 32.514 17.929 32.7678 21.25H30.4149ZM25.8224 12.5203C23.8681 10.8904 21.4258 9.82742 18.75 9.58508V7.23211C22.071 7.48594 25.0972 8.80984 27.4846 10.858L25.8224 12.5203ZM16.4062 9.58508C13.7305 9.82742 11.2881 10.8904 9.33383 12.5203L7.67164 10.8581C10.0591 8.80984 13.0852 7.48594 16.4062 7.23211V9.58508ZM2.38836 23.5938H4.74133C4.98367 26.2695 6.04656 28.7119 7.67656 30.6662L6.01438 32.3284C3.96609 29.9409 2.64219 26.9148 2.38836 23.5938ZM17.5781 4.84375C16.1223 4.84375 14.6937 5.01992 13.3162 5.36141C15.9091 3.42641 19.0852 2.34375 22.4219 2.34375C30.8221 2.34375 37.6562 9.17789 37.6562 17.5781C37.6562 20.9148 36.5736 24.0908 34.6386 26.6838C34.9801 25.3062 35.1562 23.8777 35.1562 22.4219C35.1562 12.707 27.2944 4.84375 17.5781 4.84375Z" fill="#00AA81"/>
<path d="M14.671 26.6405C15.2912 26.6405 15.8766 26.4947 16.4062 26.2212V28.2812H14.0625V30.6249H21.0937V28.2812H18.75V26.2212C19.2797 26.4947 19.8651 26.6405 20.4852 26.6405C22.7725 26.6405 24.5642 24.7396 24.5642 22.3129C24.5642 19.6371 22.308 17.8612 19.8426 15.7805C18.3368 14.5095 18.3222 14.4801 17.578 13.8398C16.808 14.5024 16.8205 14.5084 15.3135 15.7804C12.5724 18.094 10.5919 19.7655 10.5919 22.3129C10.5919 24.7396 12.3837 26.6405 14.671 26.6405ZM16.8253 17.5714C17.0712 17.3639 17.3213 17.1528 17.5781 16.9345C17.835 17.1528 18.0851 17.364 18.331 17.5715C20.7112 19.5803 22.2205 20.8545 22.2205 22.3129C22.2205 23.2987 21.6245 24.2968 20.4853 24.2968C19.4434 24.2968 18.9266 23.2263 18.7528 22.766L18.4665 22.0312H16.6897L16.4034 22.766C16.2296 23.2263 15.7128 24.2968 14.6709 24.2968C13.5317 24.2968 12.9357 23.2987 12.9357 22.3129C12.9357 20.9163 14.1984 19.7886 16.8253 17.5714Z" fill="#00AA81"/>
</g>
<defs>
<clipPath id="clip0_4831_176">
<rect width="40" height="40" fill="white"/>
</clipPath>
</defs>
</svg>
