<svg width="40" height="40" viewBox="0 0 40 40" fill="none" xmlns="http://www.w3.org/2000/svg">
<path d="M20 38C29.9414 38 38 29.9414 38 20C38 10.0586 29.9414 2 20 2C10.0586 2 2 10.0586 2 20C2 29.9414 10.0586 38 20 38Z" stroke="#00AA81" stroke-width="2"/>
<path d="M20 38C29.9414 38 38 29.9414 38 20C38 10.0586 29.9414 2 20 2C10.0586 2 2 10.0586 2 20C2 29.9414 10.0586 38 20 38Z" stroke="#00AA81" stroke-width="2" stroke-linejoin="round"/>
<path d="M28.1 22.7006L20 14.6006L11.9 22.7006" stroke="#00AA81" stroke-width="2" stroke-linecap="round" stroke-linejoin="round"/>
</svg>
