<svg width="24" height="24" viewBox="0 0 24 24" fill="none" xmlns="http://www.w3.org/2000/svg">
<g clip-path="url(#clip0_4831_536)">
<path d="M24 12.1737H21.0938V7.95492H18.0849L16.6166 3.54989L14.1173 4.38295L12.214 0.576328L1.88405 7.95492H0V23.4237H21.0938V19.2049H24V12.1737ZM16.6026 7.95492H7.84847L15.7272 5.3287L16.6026 7.95492ZM12.7697 4.83216L5.09264 7.39116L11.6922 2.67722L12.7697 4.83216ZM19.6875 22.0174H4.21875V20.6112H2.8125V22.0174H1.40625V9.36117H2.8125V10.7674H4.21875V9.36117H19.6875V12.1737H18.9844C17.0459 12.1737 15.4688 13.7508 15.4688 15.6893C15.4688 17.6278 17.0459 19.2049 18.9844 19.2049H19.6875V22.0174ZM22.5938 17.7987H18.9844C17.8213 17.7987 16.875 16.8524 16.875 15.6893C16.875 14.5262 17.8213 13.5799 18.9844 13.5799H22.5938V17.7987Z" fill="#445058"/>
<path d="M18.2812 14.9862H19.6875V16.3924H18.2812V14.9862Z" fill="#445058"/>
<path d="M2.8125 12.1737H4.21875V14.9862H2.8125V12.1737Z" fill="#445058"/>
<path d="M2.8125 16.3924H4.21875V19.2049H2.8125V16.3924Z" fill="#445058"/>
</g>
<defs>
<clipPath id="clip0_4831_536">
<rect width="24" height="24" fill="white"/>
</clipPath>
</defs>
</svg>
