<svg width="24" height="24" viewBox="0 0 24 24" fill="none" xmlns="http://www.w3.org/2000/svg">
<path d="M16.9219 2.90625V0H1.45312V21.1875H7.07812V24H22.5469V2.90625H16.9219ZM16.9219 9.52561L18.3281 10.9319V13.1619L16.9219 11.7556V9.52561ZM18.3281 15.1506V17.3806L16.9219 15.9744V13.7444L18.3281 15.1506ZM16.9219 17.9631L18.3281 19.3694V19.7812H16.9219V17.9631ZM18.3281 8.94314L16.9219 7.53689V7.125H18.3281V8.94314ZM2.85938 1.40625H15.5156V19.7812H2.85938V1.40625ZM21.1406 22.5938H8.48438V21.1875H19.7344V5.71875H16.9219V4.3125H21.1406V22.5938Z" fill="#445058"/>
<path d="M5.67188 7.03125H4.26562V18.375H9.89062V16.9688H5.67188V7.03125Z" fill="#445058"/>
<path d="M7.07812 4.21875H12.7031V14.1562H14.1094V2.8125H7.07812V4.21875Z" fill="#445058"/>
<path d="M4.26562 2.8125H5.67188V5.625H4.26562V2.8125Z" fill="#445058"/>
<path d="M12.7031 15.5625H14.1094V18.375H12.7031V15.5625Z" fill="#445058"/>
<path d="M6.99512 10.5937L9.18751 14.9785L11.3799 10.5937L9.18751 6.20901L6.99512 10.5937ZM9.18751 11.834L8.5674 10.5937L9.18751 9.35348L9.80762 10.5937L9.18751 11.834Z" fill="#445058"/>
</svg>
