<svg width="152" height="48" viewBox="0 0 152 48" fill="none" xmlns="http://www.w3.org/2000/svg">
<path d="M35.3528 6.95747C25.816 3.54553 18.6593 3.52881 18.6593 3.52881C18.6593 3.52881 11.2662 3.54553 1.4257 6.95747C1.4257 6.95747 -0.701071 26.643 1.4257 34.2864C1.4257 34.2864 7.82289 40.9598 18.6593 44.539C29.1412 40.9598 35.3528 34.2864 35.3528 34.2864C37.412 26.643 35.3528 6.95747 35.3528 6.95747Z" fill="#00AA80"/>
<path d="M18.6593 5.15115C18.8787 5.15115 25.2422 5.23478 33.8168 8.14496C34.1881 12.159 35.4203 26.9441 33.8674 33.4669C32.6015 34.7213 27.0989 39.8057 18.6593 42.8163C9.91591 39.8057 4.21076 34.6878 2.91106 33.4502C1.32443 26.9273 2.57348 12.1757 2.9617 8.16168C11.8064 5.2515 18.4567 5.16788 18.6593 5.15115ZM18.6593 3.52881C18.6593 3.52881 11.2662 3.54553 1.4257 6.95747C1.4257 6.95747 -0.701071 26.643 1.4257 34.2864C1.4257 34.2864 7.82289 40.9598 18.6593 44.539C29.1412 40.9598 35.3528 34.2864 35.3528 34.2864C37.412 26.643 35.3528 6.95747 35.3528 6.95747C25.816 3.54553 18.6593 3.52881 18.6593 3.52881Z" fill="#22333B"/>
<path d="M50.9527 15.9893H44.3867V36.1598H50.9527V15.9893Z" fill="#22333B"/>
<path d="M44.3867 13.1961V11.2225L49.5855 7.67676H50.9527V13.1961H44.3867Z" fill="#22333B"/>
<path d="M85.0972 15.9893H78.5312V36.1598H85.0972V15.9893Z" fill="#22333B"/>
<path d="M78.5312 13.1961V11.2225L83.73 7.67676H85.0972V13.1961H78.5312Z" fill="#22333B"/>
<path d="M53.668 15.9893L61.9556 36.1766H67.6777L75.6615 15.9893H68.5216L64.9939 27.9478L60.5547 15.9893H53.668Z" fill="#22333B"/>
<path d="M101.705 16.4913C103.173 16.4913 104.524 16.7422 105.756 17.2439C106.988 17.7457 108.051 18.4482 108.946 19.3513C109.841 20.2545 110.533 21.3082 111.022 22.5458C111.512 23.7835 111.765 25.1382 111.765 26.6268C111.765 28.1153 111.512 29.4701 111.022 30.7244C110.516 31.9788 109.824 33.0492 108.946 33.9357C108.051 34.8388 106.988 35.5246 105.756 36.043C104.524 36.5615 103.173 36.7957 101.705 36.7957C100.574 36.7957 99.5105 36.6117 98.5315 36.2605C97.5525 35.9092 96.6748 35.4075 95.8984 34.7385L95.257 36.1601H90.3789V10.2026H96.9111V17.7959C98.329 16.9262 99.9325 16.4913 101.705 16.4913ZM100.827 30.9753C101.452 30.9753 102.009 30.8582 102.532 30.6408C103.055 30.4234 103.511 30.1056 103.899 29.7209C104.287 29.3362 104.591 28.8679 104.811 28.3495C105.03 27.8143 105.131 27.2456 105.131 26.6435C105.131 26.0247 105.03 25.456 104.811 24.9375C104.591 24.4023 104.287 23.9507 103.899 23.5661C103.511 23.1814 103.055 22.8636 102.532 22.6462C102.009 22.4287 101.435 22.3117 100.827 22.3117C100.203 22.3117 99.6287 22.4287 99.1054 22.6462C98.5653 22.8636 98.1095 23.1814 97.7382 23.5661C97.35 23.9507 97.063 24.419 96.8436 24.9375C96.6242 25.4727 96.5229 26.0414 96.5229 26.6435C96.5229 27.2623 96.6242 27.831 96.8436 28.3495C97.063 28.8847 97.35 29.3362 97.7382 29.7209C98.1264 30.1056 98.5822 30.4234 99.1054 30.6408C99.6287 30.8582 100.203 30.9753 100.827 30.9753Z" fill="#22333B"/>
<path d="M135.416 26.4594C135.416 26.7437 135.399 27.0281 135.382 27.3124C135.365 27.5967 135.314 27.8978 135.281 28.1988H120.984C121.204 29.3027 121.642 30.139 122.318 30.6909C122.993 31.2428 123.854 31.5272 124.9 31.5272C125.676 31.5272 126.385 31.3599 126.993 31.0421C127.601 30.7243 128.073 30.2895 128.394 29.7208H134.994C134.656 30.808 134.167 31.7948 133.525 32.6645C132.884 33.5509 132.124 34.3035 131.263 34.9056C130.403 35.5245 129.424 35.9928 128.343 36.3273C127.263 36.6618 126.115 36.829 124.9 36.829C123.398 36.829 122.014 36.5614 120.748 36.0597C119.482 35.5412 118.368 34.822 117.439 33.9189C116.494 33.0157 115.768 31.9453 115.245 30.7076C114.722 29.47 114.469 28.1152 114.469 26.6601C114.469 25.205 114.722 23.8503 115.245 22.5959C115.768 21.3415 116.494 20.2711 117.423 19.3679C118.351 18.4648 119.448 17.7623 120.731 17.2438C122.014 16.7421 123.398 16.4912 124.9 16.4912C126.453 16.4912 127.871 16.7588 129.154 17.2606C130.453 17.779 131.567 18.4815 132.496 19.3847C133.424 20.2878 134.15 21.3415 134.656 22.5457C135.163 23.7332 135.416 25.0378 135.416 26.4594ZM124.9 21.6091C123.921 21.6091 123.111 21.86 122.453 22.345C121.794 22.8468 121.339 23.566 121.085 24.536H128.9C128.276 22.5959 126.942 21.6091 124.9 21.6091Z" fill="#22333B"/>
<path d="M151.856 30.4063V36.1598H147.299C145.138 36.1598 143.45 35.5577 142.252 34.3534C141.053 33.1492 140.446 31.4767 140.446 29.3359V22.1273H136.918V20.6053L145.543 11.5068H146.894V17.093H151.738V22.1441H147.062V28.2153C147.062 28.901 147.265 29.4362 147.653 29.8209C148.041 30.2056 148.581 30.4063 149.273 30.4063H151.856Z" fill="#22333B"/>
<path d="M6.39062 26.493C6.39062 25.7738 6.39062 25.0547 6.39062 24.3355C6.4075 24.2017 6.44126 24.0846 6.45814 23.9508C6.54254 23.2985 6.59317 22.6295 6.72821 21.9939C7.50465 17.9297 9.44575 14.5011 12.5346 11.7247C15.2015 9.33298 18.3073 7.82772 21.8519 7.24234C22.544 7.12526 23.236 7.05836 23.928 6.95801C24.6539 6.95801 25.3797 6.95801 26.1055 6.95801C26.5781 7.00818 27.0676 7.05836 27.5402 7.12526C31.1861 7.64374 34.4438 9.03193 37.195 11.4738C42.1575 15.8725 44.2505 21.3918 43.4572 27.9147C42.9677 31.8953 41.2629 35.3741 38.3935 38.2341C33.7179 42.9004 28.0466 44.6566 21.5143 43.5527C17.784 42.9172 14.577 41.1777 11.8763 38.5352C9.07441 35.7755 7.33586 32.4639 6.64381 28.6171C6.55942 27.8979 6.47502 27.1955 6.39062 26.493ZM27.9622 36.5281C27.9622 36.5783 27.9453 36.6285 27.9453 36.6787C29.7176 36.4612 31.473 36.2438 33.2453 36.0264C33.5154 35.9929 33.6673 35.8759 33.7855 35.6417C35.0008 33.3671 36.2329 31.0925 37.482 28.8178C37.6002 28.6004 37.617 28.4499 37.482 28.2324C36.5199 26.6603 35.5747 25.0881 34.6463 23.4992C34.4269 23.1313 34.1906 23.0644 33.8023 23.1145C31.3211 23.3821 28.8399 23.633 26.3586 23.8839C26.1223 23.9006 26.0042 23.9842 25.886 24.2017C24.9746 25.9411 24.0462 27.6638 23.1178 29.3865C22.9828 29.6374 22.9659 29.8213 23.1178 30.0722C24.2488 31.9622 25.3797 33.8521 26.443 35.7755C26.7975 36.4111 27.152 36.8292 27.9622 36.5281ZM28.9749 10.8382C28.9749 10.8048 28.9918 10.7713 28.9918 10.7379C27.4558 10.8884 25.9029 11.039 24.3669 11.2062C24.2319 11.2229 24.0631 11.3567 24.0124 11.4905C23.3035 13.5645 22.5946 15.6551 21.9194 17.729C21.8857 17.8461 21.9363 18.0468 22.0207 18.1472C22.392 18.582 22.814 18.9834 23.2022 19.4183C24.1137 20.4218 25.0252 21.442 25.9198 22.4623C26.0886 22.663 26.2405 22.7299 26.5106 22.6797C26.8144 22.6295 27.1182 22.6128 27.422 22.5793C29.6163 22.3619 31.8106 22.1445 34.0049 21.9103C34.123 21.8936 34.2918 21.7765 34.3425 21.6594C34.9164 20.1876 35.4734 18.7325 36.0135 17.244C36.0641 17.1269 35.9966 16.9095 35.9122 16.8091C34.41 15.1199 32.874 13.4808 31.4224 11.7414C30.7472 10.9721 30.0383 10.5372 28.9749 10.8382ZM23.4554 40.4753C23.5061 40.4418 23.6242 40.3749 23.6917 40.2913C24.3669 39.3881 25.0252 38.485 25.7004 37.5985C25.9029 37.3309 25.9367 37.147 25.751 36.8459C24.5695 34.8723 23.4217 32.882 22.2739 30.8917C22.122 30.6409 21.9532 30.5238 21.6662 30.4736C19.6407 30.0889 17.6321 29.7043 15.6066 29.2861C15.3534 29.236 15.2522 29.2861 15.1171 29.4868C14.155 30.9921 13.1929 32.4806 12.2308 33.9859C12.0958 34.1866 12.0789 34.3371 12.197 34.5713C13.041 36.0766 13.9694 37.5149 15.0834 38.8529C15.1678 38.9533 15.3028 39.0369 15.4378 39.0536C16.5687 39.2711 17.6996 39.4718 18.8305 39.6725C20.3328 39.9233 21.8519 40.1909 23.4554 40.4753ZM10.3066 17.9297C10.3572 17.9799 10.4247 18.0803 10.526 18.1472C11.7582 18.8663 12.9904 19.5855 14.2057 20.3214C14.3913 20.4385 14.5095 20.4218 14.6952 20.3214C16.5687 19.1339 18.5436 18.1472 20.6029 17.3109C20.7379 17.2607 20.8729 17.1102 20.9236 16.9764C21.5818 15.053 22.2064 13.1296 22.8647 11.2062C22.9322 10.9888 22.8815 10.8884 22.7128 10.7713C21.7675 10.1358 20.7717 9.61731 19.7083 9.19918C19.472 9.09883 19.2694 9.09883 19.0331 9.18246C16.9738 9.93509 15.1171 11.0222 13.4799 12.4773C12.9566 12.9456 12.349 13.4139 12.0283 14.016C11.4037 15.1533 10.948 16.391 10.4247 17.5952C10.3572 17.6621 10.3572 17.7625 10.3066 17.9297ZM9.58078 18.95C9.05753 19.8029 8.56803 20.6225 8.06166 21.442C8.0279 21.5089 7.99414 21.5925 7.97726 21.6762C7.36962 24.4693 7.43713 27.2624 8.19669 30.022C8.36548 30.6576 8.50052 31.3099 9.09129 31.728C9.80021 32.2465 10.4754 32.7984 11.1843 33.3503C11.3193 33.1664 11.3868 33.0493 11.4544 32.9489C12.2646 31.6946 13.041 30.4234 13.885 29.1858C14.3238 28.5502 14.577 27.9481 14.2901 27.1955C14.2394 27.0617 14.2225 26.9112 14.2057 26.7773C14.0706 25.1048 13.9356 23.4323 13.7837 21.7598C13.7668 21.6093 13.6993 21.4086 13.598 21.3584C12.3152 20.5556 10.9818 19.7862 9.58078 18.95ZM42.3769 26.9279C41.2798 27.53 40.132 28.1488 39.018 28.7676C38.8661 28.8513 38.7142 29.0185 38.6298 29.1691C37.3638 31.4939 36.1148 33.8187 34.8489 36.1435C34.6801 36.4445 34.6463 36.7121 34.7476 37.0466C34.8995 37.5484 35.0008 38.0669 35.1189 38.5853C35.1696 38.8362 35.2033 39.0871 35.2539 39.3547C38.7817 36.9295 41.955 32.4137 42.3769 26.9279ZM40.8409 18.1973C38.9336 14.0997 35.8616 11.1895 31.6249 9.39988C31.6249 9.78456 31.4393 10.0856 31.7093 10.3867C33.431 12.3101 35.1527 14.2335 36.8743 16.1569C36.9587 16.2405 37.0431 16.3408 37.1444 16.3743C38.4441 16.8426 39.6594 17.4781 40.8409 18.1973ZM25.5316 42.6161C24.907 42.3485 24.2994 42.0809 23.6749 41.8133C23.4386 41.7129 23.1854 41.6126 22.9153 41.5791C21.4637 41.3115 20.0121 41.0607 18.5436 40.8098C17.9022 40.6927 17.2439 40.5924 16.6025 40.4753C19.3876 42.0474 22.3583 42.7499 25.5316 42.6161Z" fill="#22333B"/>
<path d="M27.9625 36.5282C27.1523 36.8293 26.7978 36.3944 26.4602 35.7756C25.3968 33.8522 24.2659 31.9623 23.135 30.0723C22.9831 29.8214 23 29.6375 23.135 29.3866C24.0634 27.6639 24.9917 25.9245 25.9032 24.2018C26.0045 24.0011 26.1226 23.9174 26.3758 23.884C28.8571 23.6331 31.3383 23.3822 33.8195 23.1146C34.2078 23.0812 34.4609 23.1314 34.6635 23.4993C35.5918 25.0882 36.5371 26.6604 37.4992 28.2325C37.6342 28.45 37.6005 28.6172 37.4992 28.8179C36.267 31.0925 35.0348 33.3672 33.8027 35.6418C33.6676 35.8759 33.5326 35.993 33.2625 36.0265C31.4902 36.2272 29.7348 36.4613 27.9625 36.6788C27.9456 36.6453 27.9625 36.5951 27.9625 36.5282Z" fill="white"/>
<path d="M28.9753 10.8385C30.0555 10.5374 30.7476 10.9723 31.4227 11.7751C32.8743 13.4978 34.4103 15.1536 35.9126 16.8428C35.997 16.9432 36.0476 17.1606 36.0139 17.2777C35.4737 18.7495 34.9167 20.2213 34.3428 21.6931C34.2922 21.8102 34.1234 21.9273 34.0052 21.944C31.811 22.1781 29.6167 22.3956 27.4224 22.613C27.1186 22.6464 26.8147 22.6464 26.5109 22.7133C26.2577 22.7635 26.1058 22.6799 25.9201 22.4959C25.0255 21.4757 24.1141 20.4554 23.2026 19.4519C22.8144 19.0171 22.4093 18.6157 22.0211 18.1808C21.9367 18.0805 21.8691 17.8798 21.9198 17.7627C22.6118 15.672 23.3039 13.5981 24.0128 11.5242C24.0466 11.4071 24.2322 11.2566 24.3673 11.2399C25.9033 11.0726 27.4561 10.9221 28.9921 10.7716C28.9921 10.7716 28.9753 10.805 28.9753 10.8385Z" fill="white"/>
<path d="M23.4546 40.4751C21.8511 40.1908 20.3319 39.9232 18.8297 39.6556C17.6988 39.4549 16.5679 39.2542 15.437 39.0367C15.302 39.02 15.1669 38.9364 15.0825 38.836C13.9854 37.498 13.0402 36.0597 12.1962 34.5544C12.078 34.337 12.0949 34.1697 12.23 33.969C13.2089 32.4805 14.1711 30.9752 15.1163 29.4699C15.2513 29.2692 15.3526 29.2023 15.6058 29.2692C17.6144 29.6874 19.6399 30.072 21.6654 30.4567C21.9523 30.5069 22.1211 30.624 22.273 30.8748C23.4208 32.8651 24.5855 34.8554 25.7501 36.829C25.9358 37.1301 25.9021 37.314 25.6995 37.5816C25.0075 38.4681 24.3661 39.3712 23.6909 40.2744C23.6065 40.3748 23.4883 40.4417 23.4546 40.4751Z" fill="white"/>
<path d="M10.3086 17.9297C10.3592 17.7625 10.3592 17.6621 10.393 17.5785C10.9162 16.3743 11.372 15.1534 11.9965 13.9993C12.3172 13.3972 12.9249 12.9289 13.4481 12.4606C15.0854 11.0222 16.9421 9.91839 19.0013 9.16575C19.2377 9.08213 19.4402 9.08213 19.6765 9.18248C20.7399 9.60061 21.7358 10.1191 22.681 10.7546C22.8667 10.8717 22.9173 10.9721 22.8329 11.1895C22.1746 13.1129 21.5501 15.0363 20.8918 16.9597C20.8412 17.0935 20.7061 17.244 20.5711 17.2942C18.5119 18.1137 16.537 19.1172 14.6634 20.3047C14.4946 20.4218 14.3596 20.4218 14.1739 20.3047C12.9417 19.5688 11.7096 18.8664 10.4943 18.1305C10.4436 18.097 10.3592 17.9799 10.3086 17.9297Z" fill="white"/>
<path d="M9.57996 18.9502C10.9809 19.7697 12.3144 20.5391 13.631 21.3252C13.7491 21.3921 13.8166 21.5928 13.8166 21.7266C13.9685 23.3991 14.1036 25.0716 14.2386 26.7441C14.2555 26.8947 14.2724 27.0285 14.323 27.1623C14.6099 27.9149 14.3568 28.517 13.9179 29.1526C13.0571 30.3735 12.2806 31.6613 11.4873 32.9157C11.4198 33.0328 11.3354 33.1332 11.2172 33.3171C10.5083 32.7652 9.81627 32.2133 9.12422 31.6948C8.53345 31.2599 8.39842 30.6076 8.22963 29.9888C7.47007 27.2292 7.40255 24.4528 8.0102 21.6429C8.02708 21.5593 8.04396 21.4757 8.0946 21.4088C8.56721 20.6227 9.07359 19.8032 9.57996 18.9502Z" fill="white"/>
<path d="M42.3777 26.9277C41.9389 32.4136 38.7825 36.9294 35.2547 39.3713C35.2041 39.1037 35.1704 38.8361 35.1197 38.6019C35.0016 38.0834 34.9172 37.565 34.7484 37.0632C34.6471 36.7287 34.6809 36.4611 34.8496 36.16C36.1156 33.8352 37.3646 31.5104 38.6306 29.1856C38.715 29.0351 38.85 28.8679 39.0188 28.7842C40.1497 28.1487 41.2806 27.5298 42.3777 26.9277Z" fill="white"/>
<path d="M40.8395 18.1973C39.658 17.4782 38.4595 16.8426 37.1598 16.3743C37.0586 16.3409 36.9573 16.2405 36.8898 16.1569C35.1681 14.2335 33.4464 12.3101 31.7248 10.3867C31.4547 10.0856 31.6404 9.78458 31.6404 9.3999C35.8601 11.2062 38.9153 14.1164 40.8395 18.1973Z" fill="white"/>
<path d="M25.5294 42.616C22.3561 42.7498 19.3854 42.0474 16.6172 40.4585C17.2586 40.5756 17.9169 40.6759 18.5583 40.793C20.0099 41.0439 21.4615 41.2948 22.93 41.5624C23.1832 41.6125 23.4364 41.6962 23.6895 41.7965C24.2972 42.0808 24.9048 42.3484 25.5294 42.616Z" fill="white"/>
</svg>
